<?xml version="1.0" standalone="no"?>
<!DOCTYPE svg PUBLIC "-//W3C//DTD SVG 20010904//EN"
 "http://www.w3.org/TR/2001/REC-SVG-20010904/DTD/svg10.dtd">
<svg version="1.0" xmlns="http://www.w3.org/2000/svg"
 width="500.000000pt" height="500.000000pt" viewBox="0 0 500.000000 500.000000"
 preserveAspectRatio="xMidYMid meet">

<g transform="translate(0.000000,500.000000) scale(0.100000,-0.100000)"
fill="#000000" stroke="none">
<path d="M2175 4801 c-242 -44 -464 -132 -670 -268 -309 -205 -559 -534 -679
-893 -70 -209 -77 -267 -86 -655 -4 -192 -8 -351 -9 -351 0 -1 -30 -16 -65
-33 -149 -73 -243 -253 -216 -414 18 -111 183 -735 207 -781 29 -58 109 -138
164 -166 60 -31 148 -51 213 -49 l58 3 33 -45 c21 -29 54 -57 96 -79 58 -32
71 -35 144 -34 143 0 248 64 302 181 22 48 25 65 21 138 l-4 84 55 20 c81 28
132 44 135 39 8 -9 46 -102 46 -112 0 -6 -28 -28 -61 -50 -118 -75 -246 -215
-313 -341 -18 -35 -23 -52 -15 -60 8 -7 15 -4 23 9 64 105 118 181 170 234 62
65 189 162 212 162 7 0 22 -15 34 -34 30 -49 82 -92 156 -129 l64 -31 0 -91
c0 -49 4 -96 8 -103 6 -9 138 -29 214 -32 4 0 9 -127 10 -282 3 -260 4 -283
21 -286 16 -3 17 15 17 281 l0 284 46 7 c93 12 84 37 84 -235 0 -224 1 -240
18 -237 15 3 17 24 20 241 2 215 4 238 20 244 28 11 32 24 32 118 l0 91 64 31
c74 37 126 80 156 129 12 19 26 34 32 34 18 0 123 -75 186 -134 34 -32 89
-100 122 -150 86 -131 85 -130 98 -122 18 11 -35 105 -113 203 -62 79 -157
163 -242 216 l-42 27 25 57 c14 32 27 59 28 61 5 4 139 -39 193 -63 l53 -24 0
-73 c0 -179 131 -301 325 -302 105 -1 177 32 234 107 l39 51 59 -3 c64 -2 152
18 212 49 56 28 135 109 165 169 26 50 188 662 207 780 26 162 -67 338 -217
412 -35 17 -64 32 -65 33 -1 0 -5 154 -9 341 -8 378 -19 458 -86 664 -200 615
-757 1081 -1398 1170 -122 17 -414 12 -531 -8z m568 -111 c124 -21 278 -69
397 -123 398 -182 717 -537 856 -954 60 -178 75 -273 81 -510 3 -117 4 -213 1
-213 -2 0 -21 9 -43 20 -21 11 -54 23 -72 26 l-33 6 0 72 c-1 207 -31 407 -85
567 -168 494 -583 857 -1105 966 -120 25 -430 25 -550 0 -402 -85 -735 -311
-953 -647 -76 -118 -112 -194 -157 -329 -52 -156 -70 -264 -77 -463 l-6 -166
-31 -6 c-18 -4 -50 -15 -71 -26 -22 -11 -41 -20 -43 -20 -3 0 -2 98 1 218 4
168 10 239 26 314 141 648 661 1155 1300 1268 151 26 410 27 564 0z m-96 -241
c393 -53 748 -283 962 -623 132 -212 193 -423 207 -731 l7 -142 -51 -17 c-61
-21 -135 -84 -164 -140 -12 -22 -79 -268 -149 -545 -70 -277 -129 -504 -131
-506 -2 -1 -69 -5 -150 -7 l-148 -4 0 37 c0 20 -9 106 -20 190 -19 141 -20
153 -4 162 48 27 72 194 39 274 -8 19 -15 43 -15 53 0 37 200 302 355 470 146
158 212 308 222 501 7 132 -20 268 -68 344 l-30 47 -54 -4 c-196 -16 -636
-386 -800 -671 -15 -27 -41 -85 -56 -130 -28 -82 -28 -82 -66 -85 -21 -2 -83
-1 -139 3 l-100 7 -13 46 c-19 71 -86 198 -148 282 -82 109 -293 315 -403 392
-179 126 -330 186 -376 147 -58 -48 -99 -215 -92 -373 9 -197 73 -341 224
-506 52 -58 121 -139 152 -180 31 -41 83 -109 116 -150 80 -102 92 -131 72
-181 -34 -85 -11 -258 37 -286 14 -7 14 -23 -3 -148 -11 -77 -20 -163 -20
-191 l0 -50 -112 4 c-62 2 -117 8 -122 13 -5 4 -62 219 -127 476 -66 257 -126
492 -135 521 -27 85 -115 169 -206 196 -15 4 -18 19 -20 88 -6 204 15 360 71
522 162 467 576 813 1066 891 101 16 290 18 392 4z m-1122 -739 c123 -61 258
-163 386 -290 183 -182 299 -357 318 -481 5 -32 16 -58 27 -66 26 -19 338 -20
361 -1 7 5 15 31 18 56 9 62 82 209 147 297 78 105 281 302 388 378 95 68 231
140 282 151 24 6 30 2 48 -34 38 -74 53 -165 47 -290 -5 -125 -16 -169 -77
-295 -29 -61 -62 -106 -135 -185 -53 -58 -129 -148 -169 -200 -40 -52 -95
-125 -124 -162 -28 -38 -57 -86 -63 -108 -7 -22 -20 -42 -30 -45 -31 -10 -54
-91 -54 -186 0 -67 4 -91 17 -105 18 -21 58 -272 58 -368 0 -53 -1 -55 -32
-61 -39 -9 -58 -22 -58 -42 0 -11 5 -13 18 -8 9 4 30 10 46 13 24 4 27 2 23
-14 -3 -11 -9 -40 -13 -66 -4 -34 -12 -49 -25 -53 -21 -7 -26 -31 -8 -37 8 -3
4 -21 -11 -55 -17 -39 -26 -50 -40 -46 -25 7 -37 -17 -17 -32 15 -11 14 -16
-13 -53 -16 -23 -48 -53 -70 -67 -89 -56 -224 -101 -280 -94 -23 4 -25 9 -28
57 -3 43 -6 52 -21 52 -22 0 -31 -19 -31 -65 0 -29 -4 -34 -30 -40 -76 -17
-290 78 -347 153 -37 49 -40 62 -17 62 25 0 10 25 -17 28 -31 4 -68 84 -49
107 13 16 6 35 -15 35 -8 0 -17 23 -24 66 -7 37 -11 68 -9 69 2 2 20 -3 40
-10 21 -7 40 -10 43 -7 16 16 0 33 -40 43 l-45 11 0 67 c0 103 36 320 60 366
39 73 14 241 -44 286 -13 10 -26 32 -29 48 -3 16 -28 57 -55 92 -163 214 -219
284 -300 372 -132 144 -194 272 -210 438 -14 132 10 276 56 347 19 29 39 25
147 -28z m-391 -884 c37 -15 93 -70 103 -101 3 -11 79 -308 169 -660 145 -569
161 -641 147 -650 -92 -57 -169 -114 -171 -128 -5 -26 14 -20 71 22 48 36 108
71 122 71 9 0 5 -88 -6 -117 -16 -44 -58 -81 -116 -103 -100 -37 -178 -20
-234 51 -23 29 -54 138 -198 710 -169 667 -184 743 -162 802 33 86 181 142
275 103z m2852 -16 c25 -12 56 -38 69 -58 46 -68 41 -98 -135 -794 -89 -348
-167 -656 -175 -683 -16 -57 -52 -96 -107 -119 -129 -54 -311 59 -286 179 2
13 13 9 60 -24 56 -40 78 -50 78 -32 0 11 -59 63 -99 87 -17 10 -31 25 -31 32
0 17 291 1172 322 1281 24 81 66 134 122 151 46 14 131 4 182 -20z m-3082
-890 c81 -322 150 -594 153 -604 5 -18 1 -19 -54 -14 -110 10 -203 69 -248
158 -13 26 -65 210 -115 410 -86 343 -90 366 -80 417 14 77 55 148 109 187 51
37 73 47 82 37 3 -3 72 -269 153 -591z m3333 573 c88 -60 132 -142 133 -245 0
-52 -20 -145 -90 -418 -50 -198 -98 -366 -110 -385 -49 -79 -141 -133 -243
-143 -55 -5 -59 -4 -54 14 4 10 72 278 152 594 165 653 154 610 164 610 4 0
26 -12 48 -27z m-2459 -789 l61 -7 11 -71 c7 -39 11 -75 10 -81 -2 -10 -182
-77 -188 -70 -3 3 -61 221 -62 233 0 4 108 2 168 -4z m1538 -16 c-3 -13 -18
-72 -33 -131 -25 -97 -30 -108 -48 -103 -16 4 -226 77 -231 80 -2 1 14 100 22
143 5 25 25 28 203 31 92 2 93 2 87 -20z m-696 -634 l0 -61 -37 -7 c-21 -3
-57 -6 -80 -6 l-43 0 0 50 c0 43 -3 50 -20 50 -17 0 -20 -7 -20 -50 0 -50 0
-50 -32 -50 -18 0 -57 3 -85 6 l-53 7 0 61 0 61 185 0 185 0 0 -61z"/>
<path d="M1411 3642 c-11 -21 3 -52 25 -52 24 0 151 -92 237 -171 146 -134
304 -345 396 -527 22 -43 37 -62 50 -62 45 0 27 56 -74 220 -128 208 -317 415
-495 542 -100 71 -123 79 -139 50z"/>
<path d="M3375 3629 c-241 -152 -482 -426 -627 -712 -31 -62 -31 -87 0 -87 14
0 29 19 50 63 88 177 288 434 438 561 85 72 173 132 199 137 15 3 20 12 20 34
0 41 -20 42 -80 4z"/>
<path d="M2106 1511 c-11 -18 5 -36 53 -64 27 -15 73 -43 102 -63 55 -37 79
-38 79 -4 0 15 -25 37 -92 80 -88 57 -130 71 -142 51z"/>
<path d="M2635 1469 c-95 -59 -121 -85 -104 -105 6 -8 15 -14 20 -14 8 0 184
110 206 130 18 15 5 40 -21 39 -11 0 -57 -23 -101 -50z"/>
<path d="M3091 1147 c-8 -8 -11 -132 -11 -425 0 -421 4 -468 36 -441 21 17 21
864 0 872 -7 3 -19 0 -25 -6z"/>
<path d="M3425 1028 c-3 -7 -4 -153 -3 -323 3 -268 5 -310 18 -310 13 0 15 42
15 319 0 247 -3 320 -12 323 -7 3 -15 -1 -18 -9z"/>
<path d="M3755 1027 c-3 -7 -4 -152 -3 -322 3 -268 5 -310 18 -310 13 0 15 44
18 323 2 285 0 322 -13 322 -9 0 -18 -6 -20 -13z"/>
<path d="M1922 718 c3 -289 4 -313 21 -316 16 -3 17 17 17 312 0 310 0 316
-20 316 -20 0 -20 -5 -18 -312z"/>
<path d="M2925 948 c-3 -7 -4 -117 -3 -243 3 -197 5 -230 18 -230 13 0 15 33
15 239 0 183 -3 240 -12 243 -7 3 -15 -1 -18 -9z"/>
<path d="M3257 954 c-4 -4 -7 -112 -7 -240 0 -199 2 -233 15 -238 9 -3 18 0
21 7 2 7 3 115 2 241 -3 217 -8 253 -31 230z"/>
<path d="M2097 944 c-10 -10 -9 -452 1 -458 4 -2 13 -1 20 3 9 6 12 63 10 231
-3 211 -8 247 -31 224z"/>
<path d="M1596 933 c-3 -4 -6 -102 -6 -220 0 -206 1 -213 20 -213 19 0 20 7
20 214 0 174 -3 215 -14 219 -8 3 -17 3 -20 0z"/>
<path d="M3585 928 c-3 -7 -4 -108 -3 -223 3 -202 4 -210 23 -210 19 0 20 7
20 220 0 201 -1 220 -18 223 -9 2 -19 -3 -22 -10z"/>
<path d="M577 923 c-4 -3 -7 -95 -7 -204 0 -186 1 -199 19 -209 12 -6 104 -10
231 -10 127 0 219 4 231 10 16 9 19 22 19 83 l0 71 70 -69 70 -69 0 194 0 194
-70 -69 -70 -69 0 65 c0 37 -5 70 -12 77 -13 13 -469 18 -481 5z"/>
<path d="M1422 718 c3 -193 5 -213 21 -216 16 -3 17 12 17 212 0 210 -1 216
-20 216 -20 0 -20 -5 -18 -212z"/>
<path d="M1257 874 c-10 -11 -8 -296 2 -313 5 -8 16 -11 25 -8 14 6 16 26 14
164 -3 133 -5 158 -18 161 -9 1 -19 0 -23 -4z"/>
<path d="M2255 868 c-3 -8 -4 -81 -3 -163 3 -142 4 -150 23 -150 19 0 20 7 20
160 0 144 -2 160 -18 163 -9 2 -19 -3 -22 -10z"/>
<path d="M2757 873 c-4 -3 -7 -75 -7 -160 0 -132 2 -155 16 -160 9 -3 20 0 25
8 10 16 12 278 3 303 -6 16 -26 21 -37 9z"/>
<path d="M3920 714 c0 -152 1 -165 18 -162 15 3 17 20 20 166 2 157 2 162 -18
162 -19 0 -20 -6 -20 -166z"/>
<path d="M1755 848 c-3 -8 -4 -72 -3 -144 3 -121 4 -129 23 -129 19 0 20 7 20
140 0 125 -2 140 -18 143 -9 2 -19 -3 -22 -10z"/>
<path d="M4085 807 c-3 -7 -5 -54 -3 -103 3 -81 5 -89 23 -89 19 0 20 7 20
100 0 87 -2 100 -18 103 -9 2 -19 -3 -22 -11z"/>
</g>
</svg>
